<?xml version="1.0" standalone="no"?>
<!DOCTYPE svg PUBLIC "-//W3C//DTD SVG 20010904//EN"
 "http://www.w3.org/TR/2001/REC-SVG-20010904/DTD/svg10.dtd">
<svg version="1.0" xmlns="http://www.w3.org/2000/svg"
 width="260.000000pt" height="260.000000pt" viewBox="0 0 260.000000 260.000000"
 preserveAspectRatio="xMidYMid meet">
<metadata>
Created by potrace 1.11, written by Peter Selinger 2001-2013
</metadata>
<g transform="translate(0.000000,260.000000) scale(0.100000,-0.100000)"
fill="#000000" stroke="none">
<path d="M0 1300 l0 -1300 1300 0 1300 0 0 1300 0 1300 -1300 0 -1300 0 0
-1300z m492 720 c7 -11 16 -20 20 -20 20 0 82 -83 90 -120 4 -14 16 -56 28
-95 27 -86 34 -110 58 -205 11 -41 25 -76 30 -78 6 -2 9 -9 6 -17 -5 -13 29
-273 47 -353 5 -24 12 -66 14 -92 3 -27 14 -70 25 -95 11 -26 20 -55 20 -65 0
-10 15 -27 35 -39 38 -22 41 -31 24 -63 -9 -17 -4 -31 36 -89 26 -37 55 -71
66 -74 10 -4 19 -9 19 -13 0 -4 27 -5 59 -4 l60 4 10 -38 c19 -71 -26 -101
-126 -85 -26 4 -60 14 -74 22 -34 18 -113 111 -135 158 -38 82 -66 93 -164 65
-30 -8 -68 -16 -85 -18 -67 -6 -202 -28 -232 -38 -36 -10 -62 -57 -88 -157 -8
-29 -19 -58 -23 -65 -5 -6 -15 -29 -22 -51 -20 -67 -64 -84 -113 -45 -50 39
-47 63 28 200 51 94 49 109 -15 110 -47 0 -57 8 -65 50 -5 30 -2 39 24 64 28
27 34 29 88 23 64 -7 74 -3 93 32 19 37 90 257 90 281 0 12 4 29 10 39 16 30
80 388 80 451 5 419 5 421 20 430 24 16 49 11 62 -10z m1458 -125 c7 -8 21
-15 31 -15 10 0 23 -9 29 -19 5 -11 18 -22 28 -25 39 -13 69 -180 37 -206 -8
-7 -15 -17 -15 -22 0 -14 -112 -128 -126 -128 -6 0 -21 -12 -35 -26 -13 -14
-44 -40 -69 -57 -25 -17 -69 -51 -98 -76 -29 -25 -69 -59 -88 -76 l-35 -30
151 3 c195 5 368 -24 492 -82 82 -38 114 -83 103 -147 -13 -79 -158 -180 -380
-268 -60 -23 -123 -49 -140 -56 -16 -7 -48 -17 -70 -20 -49 -9 -136 -45 -150
-61 -10 -12 -52 -18 -111 -15 -27 1 -34 7 -47 38 -13 33 -13 40 0 60 9 13 22
23 30 23 21 0 189 48 258 74 33 13 78 29 100 36 22 7 47 18 55 25 8 6 35 17
59 24 51 15 212 103 232 127 22 26 -1 47 -91 80 -70 27 -99 32 -173 33 -49 1
-92 3 -96 5 -7 4 -146 -6 -315 -24 -98 -10 -113 -10 -145 6 -20 9 -43 20 -51
24 -22 10 -42 57 -35 80 7 21 76 63 108 66 9 1 25 8 35 16 9 7 31 20 47 28 54
26 376 273 414 317 41 50 56 90 39 111 -14 16 -70 41 -81 35 -4 -2 -36 -6 -72
-8 -35 -2 -72 -8 -82 -13 -10 -5 -38 -12 -62 -16 -24 -4 -53 -12 -65 -18 -11
-7 -24 -11 -28 -10 -4 1 -33 -9 -64 -23 -31 -14 -67 -25 -79 -25 -12 0 -28 -7
-35 -15 -7 -8 -18 -15 -26 -15 -7 0 -28 -10 -47 -22 l-34 -23 -7 -120 c-3 -66
-9 -167 -11 -225 -3 -58 -7 -123 -10 -145 -8 -57 12 -226 31 -274 11 -28 22
-41 35 -41 10 0 19 5 19 10 0 14 43 12 62 -2 8 -7 18 -28 21 -45 7 -37 -5 -46
-95 -77 -46 -15 -50 -15 -88 5 -46 24 -80 86 -107 196 -21 84 -24 339 -5 463
7 47 14 156 15 243 3 141 5 160 24 185 22 29 32 30 116 17 30 -5 56 -4 70 3
12 6 54 21 92 32 39 12 108 36 155 52 156 55 356 82 380 53z"/>
<path d="M528 1674 c-4 -5 -10 -65 -14 -132 -4 -67 -11 -125 -15 -128 -5 -3
-9 -23 -9 -44 0 -21 -8 -76 -19 -122 -10 -46 -27 -121 -36 -168 -10 -47 -22
-89 -27 -94 -4 -6 -8 -19 -8 -30 0 -12 -9 -49 -19 -83 l-19 -63 47 0 c63 0
273 30 286 40 7 6 1 60 -21 168 -18 88 -37 210 -44 271 -12 114 -39 242 -59
279 -6 11 -11 29 -11 39 -1 27 -25 79 -32 67z"/>
</g>
</svg>
